<svg xmlns="http://www.w3.org/2000/svg" xmlns:xlink="http://www.w3.org/1999/xlink" width="228.114" height="42.53" viewBox="0 0 228.114 42.53"><defs><clipPath id="a"><rect width="228.114" height="42.53" transform="translate(0 0)" fill="none"/></clipPath></defs><g transform="translate(0 0)"><g clip-path="url(#a)"><path d="M37.928,23.545c-33.821,0-31.493,18.6-31.493,18.6H69.42s2.328-18.6-31.492-18.6M0,17.708H75.855C68.578,17.708,37.928,0,37.928,0S7.277,17.708,0,17.708M150.063,30.274c0,4.5-2.371,7.082-6.5,7.082-4.17,0-6.466-2.529-6.466-7.121V17.785H131.61v12.45c0,7.7,4.481,12.295,11.987,12.295,7.394,0,11.987-4.7,11.987-12.256V17.785h-5.521Zm64.368-12.835c-8.01,0-13.6,5.135-13.6,12.488,0,7.421,5.6,12.6,13.6,12.6,8.056,0,13.682-5.166,13.682-12.565,0-7.375-5.626-12.526-13.682-12.526m0,19.84c-4.669,0-7.93-3.023-7.93-7.352s3.261-7.352,7.93-7.352c4.715,0,8.007,3.039,8.007,7.39,0,4.306-3.292,7.314-8.007,7.314m-27.3-12.043a7.638,7.638,0,0,0-1.829-5.17,7.637,7.637,0,0,0-5.862-2.281H170.46v24.36h5.483V32.5h1.87l7.865,9.642h6.878L183.513,31.84c2.428-1.014,3.622-3.2,3.622-6.6m-8.414,2.836H175.94V22.4h2.781c2.128,0,3.163.928,3.163,2.837s-1.035,2.838-3.163,2.838M105.584,25.09c-.992.9-1.817,1.752-2.157,2.109-.328-.322-1.1-1.073-2.184-2.07l-8.081-7.421h-2.68V42.145h5.406V29.118c0-.9-.025-1.674-.047-2.168l7.631,7,7.5-6.946c-.034.53-.075,1.317-.075,1.962V42.145h5.483V17.708h-2.718Z" fill="#fff"/></g></g></svg>