<svg xmlns="http://www.w3.org/2000/svg" xmlns:xlink="http://www.w3.org/1999/xlink" width="277.234" height="110.325" viewBox="0 0 277.234 110.325"><defs><clipPath id="a"><rect width="277.234" height="110.325" fill="none"/></clipPath></defs><g transform="translate(-822 -485)"><g transform="translate(822 485)"><g clip-path="url(#a)"><path d="M277.234,110.325H0V0H2.126V108.2H277.234Z" fill="#eb8c6e"/><path d="M67.067,10.384c.162-.243.3-.3.378-.459a.5.5,0,0,1,.378-.351c.27-.027.3.108.648.324.189.108.567.432.918.675.324.216.755.458.972.62.3.243.458.459.3.783a1.194,1.194,0,0,1-.7.675,1.7,1.7,0,0,1-.972,0,3.01,3.01,0,0,1-1.107-.27,2.4,2.4,0,0,0-1-.162c-.269,0-.728.135-.944.027s-.513.054-.918.027a3.576,3.576,0,0,0-.918.027,2.474,2.474,0,0,1-.891.027,3.215,3.215,0,0,0-.89,0c-.216,0-.675.054-.918.027-.432-.027-.54.081-.864,0a1.977,1.977,0,0,0-.891,0,3.984,3.984,0,0,1-1.134,0,5.047,5.047,0,0,0-1.106,0,4.473,4.473,0,0,0-.945.351,1.026,1.026,0,0,0-.648.648,4.652,4.652,0,0,1-.431.945,2.7,2.7,0,0,0-.406.89.942.942,0,0,0,.567.7c.162.108.621-.081,1.053,0a7.552,7.552,0,0,1,1.107,0,3.569,3.569,0,0,0,1.079,0,7.169,7.169,0,0,1,1.08,0,7.575,7.575,0,0,0,1.107,0,3.589,3.589,0,0,1,1.08,0,3.768,3.768,0,0,0,1.457,0,1.62,1.62,0,0,0,.891-.432c.162-.189.459-.648.675-.648.3,0,.4-.027.594.189a2.813,2.813,0,0,0,.486.351l.648.567a.974.974,0,0,1,.377.729c-.081.378-.432.405-.594.675-.108.189-.486.675-.4,1.052.027.217-.026.621,0,.864a2.252,2.252,0,0,1,0,.864c-.053.189.055.756,0,.891-.053.189.027.54,0,.864a5.344,5.344,0,0,0,.027.89c.028.351-.053.7,0,.891a4.525,4.525,0,0,1,0,.864,5.089,5.089,0,0,1,.028.891,4.07,4.07,0,0,0,.027.863c-.027.405,0,.675,0,.891,0,.54.026.891.026,1.242-.026.513.162.783.028,1.268-.028.135-.028.432-.081.7-.055.324.027.567-.162.756a3.148,3.148,0,0,1-.864.648l-1.053.459a1.593,1.593,0,0,1-1.08,0c-.27-.162-.215-.567-.324-.7a2.733,2.733,0,0,0-.647-.54,3.869,3.869,0,0,0-1.107-.3c-.324-.054-.891-.3-.783-.594.081-.269.216-.351.486-.458.189-.054.621.134.891.134l1,.108c.27,0,.7.027.917.027.351-.027.675-.162.783-.782a4.265,4.265,0,0,0,0-1.026,4.305,4.305,0,0,1,0-1.026,3.98,3.98,0,0,0-.243-1.431.672.672,0,0,0-.756-.35,4.572,4.572,0,0,1-1.215,0,8.316,8.316,0,0,0-1.16,0c-.432.027-.7,0-1.161,0H58.591c-.512,0-.836.027-1.16,0-.513-.027-.918.054-1.215,0-.27-.081-.567.243-.675.485a3.386,3.386,0,0,0-.35.918,7.737,7.737,0,0,0,0,.81,8.352,8.352,0,0,1,0,.837,9.964,9.964,0,0,0,0,1.565,7.782,7.782,0,0,1,0,.783,4.137,4.137,0,0,1,0,.81.893.893,0,0,1-.486.756,2.455,2.455,0,0,1-.891.27c-.3,0-.621-.081-.648-.459.054-.648-.054-.837,0-1A3.444,3.444,0,0,0,53.22,29.5l.027-1.3a6.561,6.561,0,0,0,.027-1.242c-.054-.378.081-.891,0-1.3a3.373,3.373,0,0,1,.027-1.269,6.641,6.641,0,0,1,0-1.269,9.925,9.925,0,0,0,0-1.268v-1.3a9.287,9.287,0,0,0,0-1.512c-.027-.162-.216-.027-.351.027a3.4,3.4,0,0,0-.756.891,10.16,10.16,0,0,1-.594.891,6.107,6.107,0,0,0-.512.756c-.135.323-.351.377-.459.62a4.357,4.357,0,0,1-.432.594c-.189.378-.243.432-.459.567-.216.162-.189.432-.459.54-.189.108-.189.351-.459.567a1.915,1.915,0,0,0-.486.54,1.656,1.656,0,0,1-.567.647c-.35.216-.512.567-.675.675-.134.081-.4.432-.674.432a1.212,1.212,0,0,1-.594-.081c-.351-.189-.054-.486.108-1a.741.741,0,0,1,.351-.567c.216-.135.216-.324.378-.459.27-.162.27-.459.648-.756.189-.162.431-.513.647-.756a7.687,7.687,0,0,1,.594-.756,4.655,4.655,0,0,0,.621-.782c.162-.27.4-.378.567-.783.081-.378.432-.459.567-.81a7.466,7.466,0,0,1,.594-.918,2.739,2.739,0,0,0,.54-.944,2.835,2.835,0,0,1,.512-.972c.162-.243.27-.729.486-1,.162-.216.189-.675.432-.945.3-.377.189-.512.4-.971a7.776,7.776,0,0,1,.351-.837c.189-.3-.027-.459-.27-.729a.952.952,0,0,0-.891-.378,5.807,5.807,0,0,1-1.187,0,12.527,12.527,0,0,0-1.431,0c-.567.135-.945-.108-1.431,0a12.442,12.442,0,0,0-1.349.189,3.932,3.932,0,0,1-1.485-.054.565.565,0,0,1-.54-.648c.054-.324.108-.486.621-.621a3.861,3.861,0,0,1,1.4-.081,3.855,3.855,0,0,1,1.349.162,5.654,5.654,0,0,0,1.512,0,9.4,9.4,0,0,1,1.512,0,5.82,5.82,0,0,0,.971,0,3.608,3.608,0,0,1,.945,0,1.038,1.038,0,0,0,.81-.242c.108-.109.4-.243.459-.459a4.674,4.674,0,0,0,.189-.648,1.9,1.9,0,0,1,.161-.648c.217-.243.189-.621.27-1.026.055-.243-.027-.864.27-1.08.189-.135.513,0,.864.163l1.134.3c.513.054.972.513.891.621a4.17,4.17,0,0,1-.783.756c-.189.108-.162.189-.351.324-.216.135-.216.3-.324.675a.711.711,0,0,0,.189.783,1.957,1.957,0,0,0,.756.323c.4-.027.7.108,1.079.054.27-.027.783.081,1.215.054l1.242.027a10.342,10.342,0,0,1,1.242.027,3.792,3.792,0,0,0,1.241,0h1.215c.351,0,.837.351,1.188,0a5.068,5.068,0,0,0,.377-.459ZM63.288,24.231a1.2,1.2,0,0,0,.675-.513,3.58,3.58,0,0,0,.324-1,2.771,2.771,0,0,0,0-.944,2.693,2.693,0,0,0-.324-.513c-.135-.216-.486-.216-.675-.243a6.063,6.063,0,0,0-1.215,0c-.512-.027-.836.027-1.16,0a5.535,5.535,0,0,1-1.161,0,2.082,2.082,0,0,0-1.161,0,3.348,3.348,0,0,1-1.16,0,6.084,6.084,0,0,0-1.215,0,1.269,1.269,0,0,0-.675.513c-.189.432-.4.836-.35,1a1.859,1.859,0,0,1,0,.945c-.108.3.108.324.35.513a.878.878,0,0,0,.675.243c.459-.027.837.054,1.215,0a8.314,8.314,0,0,1,1.16,0c.486.027.811,0,1.161,0a8.308,8.308,0,0,0,1.161,0,5.551,5.551,0,0,1,1.16,0Zm-7.072-4.265a9.112,9.112,0,0,0,1.215,0,5.537,5.537,0,0,0,1.16,0,8.328,8.328,0,0,1,1.161,0c.27,0,.783-.027,1.161,0,.459,0,.756.027,1.16,0,.459-.027.892,0,1.215,0,.135,0,.432-.3.675-.486a1.112,1.112,0,0,0,.324-.945c0-.377.108-.621,0-.863a2.472,2.472,0,0,0-.324-.486.855.855,0,0,0-.648-.243,8.267,8.267,0,0,1-1.161,0c-.512-.027-.674.054-1.106,0a2.663,2.663,0,0,0-1.134,0,2.523,2.523,0,0,1-1.107,0,5.047,5.047,0,0,0-1.106,0,5.792,5.792,0,0,1-1.377,0,.538.538,0,0,0-.621.459c-.134.351-.432.647-.432.864a2.793,2.793,0,0,1-.027.944c-.053.27.055.486.3.513.3.027.4.216.675.243" fill="#fff"/><path d="M89.1,10.87a4.754,4.754,0,0,0,0,.864,4.022,4.022,0,0,1,0,1c.028.459.082.972.406.81.377-.189.458-.162.62-.54.108-.215.3-.324.513-.539.135-.135.3.162.567.189.216.054.54.324.7.378a1.927,1.927,0,0,1,.54.512.876.876,0,0,1,.189.675c-.054.459-.621.486-.918.459-.513-.054-.972-.108-1.134-.108a4.9,4.9,0,0,0-1,.351.62.62,0,0,0-.486.648,2.488,2.488,0,0,1,0,1.187,3.4,3.4,0,0,0,0,1.3,1.553,1.553,0,0,0,.244.621c.189.243.27.405.459.432a.7.7,0,0,1,.567.324c.161.189.3.351.539.351.432.027.621.351.783.674a3.907,3.907,0,0,1,.3,1c.054.378-.162.459-.243.675-.081.243-.459.243-.54.3-.243.216-.243-.135-.594-.324-.189-.108-.3-.189-.27-.459,0-.27-.054-.351-.324-.675a.5.5,0,0,0-.593-.189.689.689,0,0,0-.378.783c.027.405-.028.594-.028.918A7.985,7.985,0,0,1,89,23.907a8.96,8.96,0,0,0-.027,1.458L89,26.8l.026,1.43a8.973,8.973,0,0,0,.081,1.431,2.793,2.793,0,0,1,.136,1.431,3.246,3.246,0,0,1-.217.756c-.134.269-.242.269-.377.431-.27.3-.7.378-.864.243-.351-.243-.324-.756-.4-.891a1.463,1.463,0,0,1-.054-.647l.027-1.458a5.185,5.185,0,0,0,.027-1.458,8.522,8.522,0,0,1,.027-1.457,6.585,6.585,0,0,0,.027-1.458,9.4,9.4,0,0,0,0-1.511c-.027-.216.027-.459,0-.81-.027-.189,0-.486,0-.918,0-.513-.108-.7-.243-.7-.27,0-.27.432-.567.918a5.665,5.665,0,0,0-.458,1.053c-.055.216-.244.513-.378.863a1.69,1.69,0,0,1-.594.864,1.385,1.385,0,0,1-.81.27c-.216-.081-.27-.351-.324-.567a1.378,1.378,0,0,1,.135-.782,4.276,4.276,0,0,1,.351-.837,1.548,1.548,0,0,0,.378-.729,4.924,4.924,0,0,1,.486-1.215,5.64,5.64,0,0,1,.216-.62,4.971,4.971,0,0,0,.243-.621,2.749,2.749,0,0,0,.242-.648,1.673,1.673,0,0,1,.244-.621,1.034,1.034,0,0,0,.189-.648,1.509,1.509,0,0,1,.134-.675,5.507,5.507,0,0,0,.243-1.268c.081-.486.162-1.3-.027-1.35a2.258,2.258,0,0,0-1.376.216,1.286,1.286,0,0,1-1.107-.108c-.432-.243-.4-.378-.594-.621-.108-.135.189-.513.594-.621a3.328,3.328,0,0,1,1.16-.081,4.366,4.366,0,0,0,.676.081,7.483,7.483,0,0,1,.809.081c.27.027.4-.512.378-.81a6.148,6.148,0,0,1,0-1v-.945a2.354,2.354,0,0,0,0-.972,3.781,3.781,0,0,1-.027-.971c-.027-.351-.189-.648-.027-.972.108-.216.4-.3.783-.243.216.027.567.054,1.08.135.486.081.917.324.836.513a1.4,1.4,0,0,1-.566.621c-.324.08-.406.836-.406,1.079Zm16.979,11.742c-.27-.027-.675-.108-.945-.108a11.322,11.322,0,0,0-1.43.027,4.322,4.322,0,0,0-1,.324c-.162.081-.4.459-.351.621a4.3,4.3,0,0,1,.3.809,7.182,7.182,0,0,1,.3.756c0,.324.27.324.54.324.351.027.513-.027.621-.216.189-.243.431-.378.567-.675a4,4,0,0,1,.62-.755c.243-.27.27-.729.648-.729a6.581,6.581,0,0,1,.7.162,2.246,2.246,0,0,1,.648.189c.216.081.324.027.513.351.135.162.107.3.162.621.081.593-.675.323-.918.4-.27.081-.648.594-.729.675-.162.162-.594.54-.7.675-.162.189-.566.54-.755.729-.244.189-.432.783-.136,1.053.27.215.325.377.459.458.135.108.162.27.4.459a4.449,4.449,0,0,1,.864.756c.27.243.4.378.648.324a1.12,1.12,0,0,0,.675-.756,3.191,3.191,0,0,0,.4-.972c.082-.35.27-.755.459-.728.243.027.54,0,.135,1.106a3.6,3.6,0,0,0-.135.972c-.081.432,0,.648-.054.81-.053.243.109.351.243.729s.27.54.243.674a.795.795,0,0,1-.917.81c-.162,0-.378-.081-.729-.108-.324-.027-.513-.27-.783-.378a5.183,5.183,0,0,1-.7-.458,8.778,8.778,0,0,1-.756-.621,5.557,5.557,0,0,0-.7-.675c-.351-.243-.325-.486-.648-.7a3.75,3.75,0,0,1-.621-.864c-.081-.135-.837.027-1,.216-.216.216-.486.243-.783.459a5.576,5.576,0,0,1-.782.459c-.27.162-.432.216-.594.324-.135.081-.27.3-.594.3-.216,0-.4.27-.594.27a1.351,1.351,0,0,0-.594.27c-.135.081-.432.135-.594.216-.188.081-.324.027-.593.216a2.01,2.01,0,0,1-.6.215,1.691,1.691,0,0,1-.647.189c-.27.054-.621.189-.837.216a7.378,7.378,0,0,1-.918.162c-.243,0-.4-.027-.783-.027a.408.408,0,0,1-.431-.351.4.4,0,0,1,.216-.485,5.944,5.944,0,0,1,.648-.4l.836-.3c.3-.081.4-.216.7-.216a3.773,3.773,0,0,0,1.214-.405,5.2,5.2,0,0,1,1.188-.459,4.357,4.357,0,0,0,.567-.243c.216-.054.27-.189.567-.27a1.388,1.388,0,0,0,.567-.27,2.861,2.861,0,0,1,.567-.3,1.946,1.946,0,0,0,.648-.405c.215-.161.351-.377.621-.4.134,0,.3-.351.431-.7.108-.351.189-.459,0-.783a1.526,1.526,0,0,1-.3-.675c-.081-.27-.3-.513-.27-.648.027-.324-.215-.378-.27-.728-.053-.3-.189-.486-.242-.729-.081-.351-.325-.432-.459-.567a1.74,1.74,0,0,0-.648-.3,3.9,3.9,0,0,0-1.485,0c-.378.027-.81.135-1.214.135-.324,0-.729-.108-.837.27a8.178,8.178,0,0,0-.324.891.873.873,0,0,0,.378.539,8.342,8.342,0,0,0,.971.54c.27.135.567.378.7.378a1.465,1.465,0,0,1,.7.4,1.793,1.793,0,0,1,.729.7,4.3,4.3,0,0,1,.351.945c.027.189-.027.567-.27.675-.216.107-.459.35-.594.377a.565.565,0,0,1-.648-.3,2.777,2.777,0,0,1-.4-.621c-.081-.27-.351-.486-.459-.729a2.44,2.44,0,0,0-.539-.621,6.369,6.369,0,0,0-.621-.54.441.441,0,0,0-.567.054c-.27.216-.513.27-.513.486,0,.243-.351.729-.4.891l-.513.891a9,9,0,0,1-.513.863,6.726,6.726,0,0,1-.566.81,1.733,1.733,0,0,1-.594.729,1.052,1.052,0,0,0-.459.459c-.108.243-.324.27-.621.459-.432.35-.81.512-1.08.135a.623.623,0,0,1-.108-.513c.054-.27.189-.324.351-.648.081-.189.351-.3.513-.648.108-.27.4-.405.513-.54a7.549,7.549,0,0,0,.675-.945c.162-.242.432-.755.567-.944a4,4,0,0,0,.486-1.08c.108-.3.216-.783.35-1.107a5.911,5.911,0,0,0,.243-1,1.213,1.213,0,0,0-.135-.81.7.7,0,0,0-.566-.351,1.614,1.614,0,0,1-.729-.135.484.484,0,0,1-.324-.567.6.6,0,0,1,.378-.567c.4-.216.729-.081,1.08-.135l1,.108A12.775,12.775,0,0,1,95.8,21.5a4.293,4.293,0,0,0,1.457-.027c.514-.027.891,0,1.323,0a1.513,1.513,0,0,0,.891-.405,1.083,1.083,0,0,0,.351-.81,11.008,11.008,0,0,0-.162-1.106c-.108-.513-.081-.756-.162-1.242a10.876,10.876,0,0,1-.135-1.241c0-.351-.054-.675-.081-1.242a3.8,3.8,0,0,1-.054-1.215,3.906,3.906,0,0,0-.054-1.269c-.054-.431.216-.728,0-1.241a2.5,2.5,0,0,1,0-.783,9.048,9.048,0,0,0,0-1.485A5.507,5.507,0,0,1,99.118,7.9c.054-.27.378-.108.567-.216.243-.162.432-.108.783-.135a2.517,2.517,0,0,1,.809.162,1.049,1.049,0,0,1,.54.594c.162.486-.162.27-.54.621a1.559,1.559,0,0,0-.378,1.025,4.532,4.532,0,0,1,0,.864c-.026.351,0,.567,0,.837a9.856,9.856,0,0,0,0,1.242,9.094,9.094,0,0,0,.055,1.268,9.191,9.191,0,0,0,.053,1.242l.081,1.241c.108.54.027.864.108,1.242.028.459.189.945.162,1.215,0,.162.108.594.108.729a1.384,1.384,0,0,0,.136.755c.161.216.189.459.593.594a6.612,6.612,0,0,0,1,.3h1.079c.486,0,.784.135,1.053,0,.3-.162.324-.378.594-.621.162-.135.243-.513.594-.594a.971.971,0,0,1,.81.324c.216.324.459.351.89.567a.889.889,0,0,1,.459,1,.745.745,0,0,1-.648.648,4.9,4.9,0,0,1-.944.027Zm-8.449-6.127c.162.161.27.35.54.4a1.23,1.23,0,0,1,.7.891,2.941,2.941,0,0,1,.27,1.161,1.474,1.474,0,0,1-.243.756.8.8,0,0,1-.7.324.517.517,0,0,1-.567-.27c-.162-.27-.242-.243-.242-.675a.691.691,0,0,0-.433-.594,1.255,1.255,0,0,0-.674-.243c-.189,0-.432.162-.729.108a3.754,3.754,0,0,0-.729.081c-.486.054-.7.135-1.161.189a2.508,2.508,0,0,0-1.106.162c-.324.243-.378.513-.729.567s-.486-.513-.621-.864c-.189-.459-.486-.729-.27-1.107.459-.864,1.026-.054,1.134-.027a1.63,1.63,0,0,0,.729-.027c.27-.027.431-.513.539-.621.189-.189.3-.4.567-.7a3.137,3.137,0,0,0,.567-.675,2.266,2.266,0,0,1,.513-.729,3.305,3.305,0,0,0,.486-.7,2.341,2.341,0,0,1,.459-.728c.162-.163.243-.54.459-.729.162-.162.243-.783.459-.783.323,0,.512.324.89.459a1.858,1.858,0,0,1,.81.566c.216.27-.027.594-.243.729a1.064,1.064,0,0,1-.539.135c-.136.027-.325.243-.459.513-.163.27-.352.351-.486.54-.3.324-.378.4-.594.648a2.246,2.246,0,0,1-.756.756,1.35,1.35,0,0,0-.486.864c-.135.3.135.4.486.4.54,0,1.214-.162.972-.486-.162-.216-.675-.62-.567-.836.135-.27.756-.216,1.106.108ZM91.56,11.653c.216-.54.837-.27,1.215-.189a1.376,1.376,0,0,0,1.133-.567,6.447,6.447,0,0,0,.405-1,4.559,4.559,0,0,0,.378-.971c.054-.351-.135-.918.351-1a.983.983,0,0,1,.756.189c.108.108.351.027.837.135.459.189.756.378.675.7-.082.269-.244.567-.433.567-.134,0-.431.053-.647.053-.432,0-.3.4-.513.7-.243.3-.3.486-.486.675-.3.27-.351.486-.513.594-.216.162-.135.837.135,1.242a1.211,1.211,0,0,1,.3.944.85.85,0,0,1-.324.513,1,1,0,0,1-.567.243.813.813,0,0,1-.7-.594c-.055-.243-.217-.27-.54-.567-.216-.27-.054-.378-.27-.513a7.257,7.257,0,0,1-.7-.539c-.135-.108-.594-.324-.486-.621m13.146,2.294a7.706,7.706,0,0,0,.512-.756c.243-.35.3-.593.459-.728a6.274,6.274,0,0,0,.432-.756c.162-.189.27-.81.459-.81a6.022,6.022,0,0,1,1.215.4,1.009,1.009,0,0,1,.593.432,1.179,1.179,0,0,1,.189.729c-.081.458-.755.162-1.052.432-.108.081-.324.4-.432.512-.189.162-.216.3-.432.486a1.771,1.771,0,0,0-.486.513c-.162.3-.189.459-.459.513-.189.054-.3.27-.513.513-.243.216-.567.459-.593.621-.055.323.026.512.431.675.108.053,1.728.107,1.7-.163-.054-.323-.621-.809-.567-.971.3-.837.756-.189,1.053-.108a1.953,1.953,0,0,1,.62.324,5.036,5.036,0,0,1,.514.351c.242.189.566.3.7.7.081.431.324.7.3,1.025a1.212,1.212,0,0,1-.216.729.594.594,0,0,1-.648.3c-.3-.054-.593-.027-.836-.27-.162-.162-.27-.756-.648-.81-.351-.027-.783.162-.972.108-.324-.108-.729-.135-.837-.027a1.423,1.423,0,0,1-.755.054c-.352,0-.594-.081-.783.054-.216.135-.324.081-.567.216s-.459.459-.783.567c-.3.081-.486-.486-.648-.945-.162-.486-.431-.783-.135-1.107.486-.539.756.027.864-.054a4.414,4.414,0,0,0,.621-.62,2.881,2.881,0,0,1,.621-.729,1.53,1.53,0,0,1,.3-.27c.161-.135.161-.27.27-.432Zm-2.052-2.861c.216,0,.648-.378.81-.648a2.431,2.431,0,0,0,.459-1c.108-.377.35-.485.405-.944a1.514,1.514,0,0,1,.378-.972c.242-.189.485.189.7.243a8.15,8.15,0,0,0,.837.189c.432.054.756.27.648.783-.054.216-.3.377-.459.512-.3.216-.432,0-.648.027-.3.055-.243.4-.459.621-.243.243-.269.432-.486.621-.3.27-.27.729-.459.972a.868.868,0,0,0,.028.837,2.879,2.879,0,0,1,.27.917c0,.378-.27.648-.784.7a.5.5,0,0,1-.512-.135.985.985,0,0,1-.378-.621,2.253,2.253,0,0,0-.432-.836,3.808,3.808,0,0,1-.378-.486c-.135-.162-.324-.27-.54-.486-.648-.648.81-.3,1-.3m.324,7.612c.189.027.891.324,1.323.378a4.886,4.886,0,0,1,1,.459.732.732,0,0,1,.459.809c-.054.406-.081.675-.593.729-.352.027-.784-.486-1.081-.675-.134-.107-.189-.215-.4-.377a2.894,2.894,0,0,0-.513-.351c-.324-.162-.675-.351-.675-.54s.108-.513.486-.432" fill="#fff"/><path d="M132.816,11.815a9.54,9.54,0,0,0,1.268-.243c.27-.027.675-.3.648-.54a2.885,2.885,0,0,1,0-.971,3.484,3.484,0,0,0-.027-1.053,6.49,6.49,0,0,1-.027-1.053c.027-.243.567-.3.756-.243.216.054.783.081,1.215.135.512.054,1.026.243,1.026.54,0,.378-.378.432-.594.648a1.629,1.629,0,0,0-.4,1.106,2.229,2.229,0,0,1,0,.945c-.054.135.189.324.54.486a1.891,1.891,0,0,0,1.052.243c.324-.081.648.054.945,0a5.21,5.21,0,0,1,.918,0,2.451,2.451,0,0,1,.891,0,1.546,1.546,0,0,0,.864,0,2.314,2.314,0,0,1,.863,0,2.9,2.9,0,0,0,.837,0c.216-.054.324-.243.432-.459.135-.27.189-.378.432-.486.162-.081.189-.189.432-.485.134-.217.027-.541.431-.487.162.028.351.082.621.459.162.189.378.216.459.324a1.489,1.489,0,0,0,.486.378,3.319,3.319,0,0,1,.972.621.725.725,0,0,1,.3.837c-.081.324-.4.4-.54.486-.243.162-.567.027-.756,0-.4-.054-.4-.135-.81-.216a5.006,5.006,0,0,0-.729-.135,3.476,3.476,0,0,0-1.4.054,4.691,4.691,0,0,1-1.377.027,4.674,4.674,0,0,0-1.376.054,4.7,4.7,0,0,1-1.377,0,4.566,4.566,0,0,0-1.349.027,3.411,3.411,0,0,1-1.377.027c-.351-.027-.918,0-1.35,0a7.238,7.238,0,0,1-1.35.027,10.8,10.8,0,0,0-1.322,0,11.219,11.219,0,0,0-1.35,0c-.351,0-.917.027-1.323,0a5.413,5.413,0,0,0-1.322,0c-.351.027-.837,0-1.323,0a10.775,10.775,0,0,1-1.323,0c-.215-.027-.54.135-.7.108-.27-.027-.432.108-.7.108a3.678,3.678,0,0,1-1.431-.108c-.432-.108-.647-.459-.594-.621a.937.937,0,0,1,.594-.621,2.591,2.591,0,0,1,1.431-.081,5.724,5.724,0,0,0,1.4.162,6.855,6.855,0,0,1,1.053,0,1.547,1.547,0,0,0,1.053,0c.324-.081.729.135,1.053,0a2.757,2.757,0,0,1,1.052,0h2.214Zm-.081,14.765c.189-.189.4-.432.648-.675a3.3,3.3,0,0,0,.593-.647,1.931,1.931,0,0,1,.622-.675,1.263,1.263,0,0,0,.593-.7c.081-.243.4-.432.594-.675.162-.243.324-.378.594-.7.189-.243.4-.459.567-.7a8.594,8.594,0,0,0,.567-.73,3.6,3.6,0,0,1,.566-.728,2.729,2.729,0,0,0,.54-.729,8.284,8.284,0,0,1,.54-.729c.108-.162.432-.567.54-.756.108-.162.27-.782.54-.782.351,0,.459.162.7.378.161.188.567.242,1.025.377a.956.956,0,0,1,.54.378.975.975,0,0,1,.162.675c0,.486-.432.513-.593.54-.378.081-.487-.135-.729-.054-.163.054-.244.3-.54.621a7.526,7.526,0,0,1-.54.594c-.27.215-.27.458-.54.593s-.351.378-.54.594a3.413,3.413,0,0,1-.54.567,2.262,2.262,0,0,0-.567.567c-.215.27-.323.459-.54.567-.35.162-.458.486-.566.567s-.324.324-.594.54a2.78,2.78,0,0,0-.567.566c-.189.27-.378.324-.594.54-.189.243-.351.27-.594.54-.3.324-.593.513-.81.756-.242.27-.486.351-.539.594-.108.4-.459.62-.135.513a3.607,3.607,0,0,1,1.188-.054c.27,0,.755-.081,1.079-.081a3.236,3.236,0,0,0,1.026-.081,1.565,1.565,0,0,1,1-.081,2.888,2.888,0,0,0,1-.081c.4-.108.782,0,1-.081a2.156,2.156,0,0,1,1.08-.081c.3.054.81-.108,1.349-.108.459,0,.028-.486-.189-1.026a.945.945,0,0,0-.486-.486c-.215-.162-.377-.189-.539-.378s-.4-.216-.621-.378c-.324-.243-.864-.432-.648-.647.081-.081.189-.028.513-.108a1.146,1.146,0,0,1,.918.3,6.436,6.436,0,0,0,1.025.458,6.876,6.876,0,0,0,.891.459,1.708,1.708,0,0,1,.729.459c.243.243.351.432.675.513.243.054.486.4.62.54.163.135.325.405.6.621a2.967,2.967,0,0,1,.539.648c.108.135.351.593.513.755a1.275,1.275,0,0,1,.378.837,8.014,8.014,0,0,1,.162.891,3.781,3.781,0,0,1-.27.837.744.744,0,0,1-.783.4,1.387,1.387,0,0,1-.7-.378c-.3-.3-.3-.54-.433-.729-.161-.27-.323-.7-.512-1.026a7.264,7.264,0,0,0-.513-1.026c-.162-.189-.243-.377-.54-.459a1.412,1.412,0,0,1-.594-.188c-.216-.108-.351.053-.7.108a3,3,0,0,1-.675.134,2.7,2.7,0,0,0-1.026.163c-.459.161-.675,0-1.053.161a2.086,2.086,0,0,1-1.026.162,3.391,3.391,0,0,0-1.025.162,4.273,4.273,0,0,0-1.026.135,4.755,4.755,0,0,1-1.026.162,3.419,3.419,0,0,1-1.053.135,3.627,3.627,0,0,0-1.025.135c-.3.027-.81.108-1.053.108a6.617,6.617,0,0,0-1.026.108c-.4.081-.782.081-1.052.135-.3.027-.756.081-1.026.081-.378.027-.918.108-1.4.135-.4.027-.647.108-.783.405a1.062,1.062,0,0,1-.647.567c-.324.054-.675-.3-.756-.891a5.762,5.762,0,0,0-.4-1.08c-.054-.189-.567-.648-.27-.863.27-.189.594-.054.864-.054a3.452,3.452,0,0,0,1.187-.027c.216-.108.486,0,.864-.028a3.386,3.386,0,0,1,.891-.026,8.576,8.576,0,0,0,.891-.054,2.677,2.677,0,0,1,.864-.027,2.344,2.344,0,0,0,.756-.027c.4-.162.431-.486.593-.621.216-.189.324-.405.648-.675Zm-.324-6.694a.7.7,0,0,0,.027.756,7.833,7.833,0,0,1,.486.944,4.013,4.013,0,0,0,.216.621c.108.216.054.378.216.648.189.324-.162.7-.27.864a.944.944,0,0,1-.783.378.845.845,0,0,1-.81-.513,3.985,3.985,0,0,1-.432-.918c-.081-.27-.215-.3-.27-.567-.026-.243-.27-.243-.323-.54-.028-.189-.244-.377-.351-.512a1.268,1.268,0,0,1-.4-.459,2.252,2.252,0,0,0-.567-.432,2.681,2.681,0,0,0-.729-.378c-.567-.189-.864-.486-.7-.837.108-.243.459-.3.864-.189a5.255,5.255,0,0,1,1.106.351l.864.4a1.2,1.2,0,0,0,1.08-.27c.162-.243.378-.621.54-.837.216-.3.216-.54.486-.809a6.157,6.157,0,0,0,.459-.81,8.313,8.313,0,0,1,.432-.837c.108-.243.269-.513.4-.837a2.388,2.388,0,0,0,.4-.837c.027-.323.055-.729.4-.917.27-.135.4.108.783.27a7.428,7.428,0,0,1,1.08.431c.539.27.836.4.864.7s-.3.459-.486.513a6.265,6.265,0,0,1-.729.162c-.243.027-.3.567-.513.648-.3.135-.324.54-.513.675a1.976,1.976,0,0,0-.54.648,5.468,5.468,0,0,1-.54.647,4.085,4.085,0,0,1-.567.621,3.937,3.937,0,0,0-.593.621Z" fill="#fff"/><path d="M179.739,22.612a3.226,3.226,0,0,0,.7.594,5.943,5.943,0,0,1,.756.594,2.736,2.736,0,0,0,.783.567c.324.081.567.431.783.539s.459.3.809.486a6.345,6.345,0,0,0,.837.486,5.087,5.087,0,0,1,.783.432,5.285,5.285,0,0,0,.89.432c.325.081,1,.135.945.486s-.62.324-.782.432a3.889,3.889,0,0,0-.621.377,2.327,2.327,0,0,1-.54.432c-.108.081-.135.243-.351.378-.243.135-.675-.189-.864-.351a7.377,7.377,0,0,0-.756-.513c-.216-.134-.324-.269-.7-.539a3.7,3.7,0,0,1-.7-.54,3.742,3.742,0,0,1-.675-.567,3.017,3.017,0,0,0-.675-.594,6.39,6.39,0,0,1-.621-.621c-.216-.189-.431-.54-.62-.648a1.447,1.447,0,0,1-.622-.7,1.869,1.869,0,0,0-.593-.7c-.243-.189-.3-.513-.567-.729a1.972,1.972,0,0,1-.54-.756c-.108-.324-.459-.513-.54-.81-.108-.35-.4-.539-.62-1-.109-.324-.244-.324-.406.081a2.69,2.69,0,0,0-.189,1.322c0,.621.055.918.028,1.35-.028.351,0,.945,0,1.188a3.083,3.083,0,0,0,.027,1.106c.107.243-.055.81,0,1.053l.026,1.053v1.026c0,.3.027.782.027,1.052a3.363,3.363,0,0,0,.028,1.026,3.562,3.562,0,0,1,0,1.512.837.837,0,0,1-.675.647c-.4.081-.81.3-.972.216-.54-.216-.4-.783-.486-1.106-.054-.243,0-.567-.054-.783a5.517,5.517,0,0,1,.027-1.323c0-.351.054-.783.027-1.322-.027-.486.027-.783.027-1.323a7.432,7.432,0,0,0,.027-1.323,12,12,0,0,1,0-1.4c.027-.378,0-.54,0-.837,0-.216.027-.729,0-.972-.027-.378-.081-.864-.243-.891-.27-.027-.351-.108-.567.081a1.685,1.685,0,0,0-.432.567c-.162.216-.35.216-.4.459-.082.378-.54.621-.648.756-.163.216-.432.432-.675.7a7.9,7.9,0,0,1-.675.675,5.366,5.366,0,0,1-.675.674c-.351.243-.594.432-.675.675a1.54,1.54,0,0,1-.7.675c-.351.189-.486.459-.729.648s-.594.513-.7.621l-.783.62a5.991,5.991,0,0,1-.729.567c-.351.216-.567.432-.729.54a2.34,2.34,0,0,0-.539.378c-.189.216-.4.216-.621.3-.54.189-.837.3-1-.108a.93.93,0,0,1,.351-1.026,2.716,2.716,0,0,1,.54-.459c.27-.081.3-.243.459-.351.351-.3.486-.3.756-.566.27-.243.485-.324.782-.621a6.7,6.7,0,0,1,.756-.648,2.611,2.611,0,0,0,.756-.675,3.324,3.324,0,0,1,.729-.675,9.764,9.764,0,0,0,.729-.7c.27-.271.351-.432.674-.729a1.977,1.977,0,0,0,.648-.756,5.469,5.469,0,0,1,.621-.783,3.434,3.434,0,0,0,.594-.783,2.555,2.555,0,0,1,.594-.836,4.238,4.238,0,0,0,.567-.81,2.23,2.23,0,0,1,.378-.594c.161-.189-.028-.513-.324-.675a5.5,5.5,0,0,0-.594-.243,1.442,1.442,0,0,0-.729-.081c-.351.081-.891-.081-1.269,0-.378.135-.62-.027-.917,0a2.765,2.765,0,0,1-.945,0c-.4-.054-.7.054-.918,0a3.468,3.468,0,0,0-.918,0,7.664,7.664,0,0,0-1.376.189,1.362,1.362,0,0,1-.729.027c-.216-.108-.594.027-.729-.135-.216-.3-.648-.459-.594-.621.108-.27.135-.485.594-.62a4.035,4.035,0,0,1,1.431-.082l1.4.189a6.566,6.566,0,0,1,1.026,0,2.176,2.176,0,0,0,1.026,0,3.489,3.489,0,0,1,1.052,0c.216.028.756,0,1.026,0a3.806,3.806,0,0,1,1.107,0c.351.108.648-.053,1.079,0a6.3,6.3,0,0,0,1.242-.242.644.644,0,0,0,.567-.459c.189-.459-.054-.918.081-1.269.054-.243-.081-.621,0-1.107a7.872,7.872,0,0,0,0-1.133c.054-.4-.027-.621,0-1.107.081-.351-.054-.7,0-1.107.027-.4-.054-.648-.027-1.107.054-.242-.162-.809-.054-1.187.054-.27.27-.378.675-.351a5.674,5.674,0,0,0,.971.027,2.1,2.1,0,0,1,.945.3c.325.162.567.351.594.513.054.432-.432.594-.728.729-.163.08-.216.161-.3.485-.081.378-.108.594-.136.729a2.209,2.209,0,0,0,0,1.026,2.272,2.272,0,0,1,0,1.053c-.053.351.028.809,0,1.106a5.413,5.413,0,0,0,0,1.134,2.589,2.589,0,0,0,.162.648c.163.3.189.513.378.648.135.108.189.378.513.485.27.082.324.189.54.189a2.53,2.53,0,0,0,.918,0,5.612,5.612,0,0,1,.944,0,5.014,5.014,0,0,1,.892,0,1.237,1.237,0,0,0,.89,0c.216-.081.594.135.864,0,.189-.107.7.054.864,0,.512-.215.431-.566.648-.782l.512-.594c.108-.135.4-.513.567-.567.243-.081.378.216.621.459.135.135.243.3.459.324.27,0,.27.216.486.351a7.242,7.242,0,0,1,.945.62.709.709,0,0,1,.27.864c-.3.432-.244.513-.567.54-.3.027-.4.162-.783.027a3.189,3.189,0,0,0-.837-.216l-.756-.135a2.645,2.645,0,0,0-1.4.081c-.567.081-.918-.054-1.4.027a5.787,5.787,0,0,1-1.35.027c-.485,0-.81.054-1.349.027a2.263,2.263,0,0,0-.864,0c-.3.081-.594-.027-.864.3-.243.3-.351.513-.135.594.3.135.351.486.513.621a2.28,2.28,0,0,1,.4.486,4,4,0,0,0,.648.755,7.186,7.186,0,0,1,.621.648l.674.648ZM168,10.978a4.929,4.929,0,0,0,.729.567,2.7,2.7,0,0,1,.621.621c.216.324.4.513.567.729a2.465,2.465,0,0,1,.432.836c.054.189.108.594.162.918a.872.872,0,0,1-.3.783c-.162.135-.513.459-.756.459-.513.027-.567-.324-.837-.54a1.03,1.03,0,0,1-.4-.864,1.4,1.4,0,0,0-.216-.648,3.824,3.824,0,0,1-.27-.594,4.113,4.113,0,0,0-.323-.593,2.118,2.118,0,0,0-.378-.54c-.216-.216-.3-.405-.567-.54-.324-.189-.432-.351-.7-.486a1.108,1.108,0,0,1-.567-.486c-.135-.216-.189-.432-.054-.513.3-.216.459-.27.945-.081a6.049,6.049,0,0,1,1.106.513Zm9.124,3.941c.027-.216.162-.27.351-.486s.189-.459.54-.756a6.53,6.53,0,0,0,.54-.782,7.2,7.2,0,0,1,.512-.81,3.568,3.568,0,0,0,.351-.864c.108-.3.378-.4.432-.837.054-.378.027-.837.432-.918.3-.054.621.27.81.351a4.754,4.754,0,0,0,1.08.27.8.8,0,0,1,.566.351.931.931,0,0,1,.217.648.618.618,0,0,1-.622.594c-.323.027-.566-.081-.755,0-.3.108-.378.486-.54.675a6.541,6.541,0,0,1-.513.647c-.27.324-.378.3-.594.621a3.672,3.672,0,0,1-.486.675,2.925,2.925,0,0,0-.459.648,4.144,4.144,0,0,0-.458.648c-.135.324-.513.513-.756.729-.135.135-.675.377-.891.162-.351-.378-.324-.567-.081-1.026.108-.189.27-.243.324-.54" fill="#fff"/><path d="M207.147,10.842A5.972,5.972,0,0,1,207.12,9.6c.054-.4-.081-.918-.027-1.188.027-.135.351-.3.675-.27.216.027.7-.162.945-.162s.7-.081.945.162c.134.189.539.378.593.621.054.54-.648.621-.756.729a.99.99,0,0,0-.27.567,2.157,2.157,0,0,0-.134.918c.026.377-.028,1.106,0,1.4a1.261,1.261,0,0,0,.323.783c.162.189.351.459.648.405.432-.027.756,0,1.188,0,.324,0,.837-.027,1.134,0a7.842,7.842,0,0,0,1.133,0c.4-.054.675.027,1.134,0s.729,0,1.133,0c.459,0,.811-.027,1.188,0,.324.081.54-.162.675-.513.081-.3.324-.594.324-.918.054-.486-.162-1.079-.027-1.484a5.263,5.263,0,0,0-.027-1.323c-.081-.378-.324-.81-.027-1.323.081-.162.4,0,.675-.054a2.457,2.457,0,0,1,.945-.081c.243.027.593.108.944.189.244.054.459.4.594.756.162.594-.567.648-.7.729s-.135.3-.3.513a1.015,1.015,0,0,0-.136.782,8.366,8.366,0,0,1,0,1.188c0,.567-.08,1.161.189,1.377.162.135.406.108.784.162a1.154,1.154,0,0,0,.836-.162c.162-.135.567-.27.648-.432.108-.27.3-.324.459-.486a2.384,2.384,0,0,1,.432-.459c.188-.135.188-.459.432-.4a1.368,1.368,0,0,1,.837.621c.08.216.323.081.485.243.189.135.621.324.729.432.243.243.459.324.621.567a1.107,1.107,0,0,1,.108.729c-.027.54-.378.512-.648.647-.4.243-.486.054-.918.054a2.421,2.421,0,0,1-1.025-.215c-.4-.109-.7-.216-.891-.135a1.759,1.759,0,0,1-.837.026c-.4-.08-.621.109-.864.054-.324-.054-.648.324-.918.594a.883.883,0,0,0-.323.621c-.027.27-.216.4-.136.621a2.88,2.88,0,0,1,0,1.08,4.989,4.989,0,0,1,0,1.106,5.391,5.391,0,0,0,0,1.323l.028,1.35c0,.4-.028.89,0,1.349,0,.594.027,1.026,0,1.35l.027,1.35a7.408,7.408,0,0,0,.026,1.349,11.6,11.6,0,0,0,.028,1.35,4.489,4.489,0,0,1,.027,1.35,2.713,2.713,0,0,0,.026.809c0,.27-.026.54-.026.864a.843.843,0,0,1-.594.648,5.99,5.99,0,0,1-.918.189c-.3-.027-.594-.135-.621-.432a4.124,4.124,0,0,1-.108-.972c0-.3.108-.674-.027-.917-.189-.324-.621-.324-.81-.378a2.931,2.931,0,0,0-1.188,0,4.008,4.008,0,0,1-1.133,0c-.4.027-.675,0-1.134,0a5.337,5.337,0,0,1-1.133,0c-.4-.054-.837.08-1.134,0a4.315,4.315,0,0,0-1.188,0,1.144,1.144,0,0,0-.648.324.917.917,0,0,0-.323.593c-.055.432,0,.783-.028,1.107.028.432-.242.567-.539.675s-.756.27-.891.189c-.216-.135-.567-.27-.594-.513a5.2,5.2,0,0,1,0-1.3,6.256,6.256,0,0,0,.027-1,3.9,3.9,0,0,1,.027-.971,6.177,6.177,0,0,0,.027-1,4.051,4.051,0,0,1,.027-.972c0-.35-.027-.728,0-1,0-.189.027-.7.027-1a3.842,3.842,0,0,0,0-.972c-.054-.189.027-.756,0-1a2.929,2.929,0,0,1,0-.971c.027-.27-.027-.756,0-1a4.122,4.122,0,0,0,0-1,1.974,1.974,0,0,1,0-.972c.027-.269,0-.62,0-1.052a3.171,3.171,0,0,0-.027-1.026,3.832,3.832,0,0,1-.135-.594.955.955,0,0,0-.378-.594c-.4-.269-.621-.7-.972-.621a1.86,1.86,0,0,1-.863,0c-.244-.026-.648,0-.864,0-.351,0-.972.217-1.4.217A5.585,5.585,0,0,1,201.1,14.7c-.4-.135-.539-.3-.593-.621-.027-.189.081-.378.593-.621a2.868,2.868,0,0,1,1.431-.081c.378.054,1.08.108,1.4.189a2.293,2.293,0,0,0,.864,0,4.6,4.6,0,0,1,.863,0,1.328,1.328,0,0,0,.972-.486,1.35,1.35,0,0,0,.513-.864Zm9.825,9.664c.3,0,.486-.216.675-.459a2.226,2.226,0,0,0,.324-.891,4.5,4.5,0,0,0,0-1.592,10.776,10.776,0,0,1,0-1.62,2.113,2.113,0,0,0-.324-.891c-.27-.35-.4-.459-.675-.459a3.475,3.475,0,0,1-1.188,0c-.431-.054-.728.135-1.133,0a4.015,4.015,0,0,0-1.134,0c-.459,0-.7.028-1.133,0a3.175,3.175,0,0,0-1.134,0,1.973,1.973,0,0,1-1.188,0c-.135-.054-.513.324-.648.459a.962.962,0,0,0-.323.891c.053.405-.055,1.053,0,1.62a10.276,10.276,0,0,0,0,1.592,3.252,3.252,0,0,0,.323.891,1.122,1.122,0,0,0,.648.459c.486.027.783,0,1.188,0h1.134c.4,0,.782-.027,1.133,0s.675,0,1.134,0h2.321Zm1,3.482V23.07a1.318,1.318,0,0,0-.324-1c-.324-.188-.486-.512-.675-.512h-1.188a3.937,3.937,0,0,0-1.133,0c-.486.108-.729-.108-1.134,0a2.288,2.288,0,0,1-1.133,0,3.944,3.944,0,0,0-1.134,0,8.6,8.6,0,0,0-1.188,0c-.216.027-.513.377-.648.512a1.141,1.141,0,0,0-.323,1,2.669,2.669,0,0,1,0,.918v.891a4.788,4.788,0,0,0,0,.89c.053.3-.055.675,0,.918.08.3.053.729.323,1,.244.243.459.54.648.54a8.712,8.712,0,0,1,1.188,0h1.134a3.977,3.977,0,0,0,1.133,0c.486,0,.675.135,1.134,0,.27-.081.756.108,1.133,0a5.8,5.8,0,0,1,1.188,0c.135.135.486-.3.675-.54a1.435,1.435,0,0,0,.324-1,5.19,5.19,0,0,1,0-.918,4.877,4.877,0,0,0,0-.89Z" fill="#fff"/><path d="M239.63,15.944a.647.647,0,0,1,.459-.432,1.491,1.491,0,0,1,.7-.054,2.211,2.211,0,0,1,.81.189,2.483,2.483,0,0,0,.729.243.878.878,0,0,1,.594.27,2.013,2.013,0,0,0,.459.378c.135.081.108.27.324.513a.843.843,0,0,1,.135.648,1.047,1.047,0,0,1-.378.7c-.243.243-.3.485-.594.4-.486-.108-.459-.081-.756-.3-.216-.162-.216-.567-.54-.756-.108-.054-.3-.3-.486-.378-.134-.054-.431-.243-.728-.378a3.462,3.462,0,0,1-.594-.459.465.465,0,0,1-.135-.594m8.1-1.727A2.518,2.518,0,0,0,247.4,15c-.027.216-.3.54-.324.783a2.134,2.134,0,0,1-.324.783,1.764,1.764,0,0,0-.324.81,2.358,2.358,0,0,1-.324.783c-.243.351-.162.539-.324.782a2.009,2.009,0,0,0-.324.783,2.321,2.321,0,0,1-.324.81c-.08.216-.35.4-.324.783-.026.324-.27.594-.323.783a3.127,3.127,0,0,0-.3.782,1.442,1.442,0,0,1-.324.756c-.243.243-.108.459-.3.729-.135.216-.108.459-.243.729a3.6,3.6,0,0,0-.162.756,5.706,5.706,0,0,0,.054,1.889,2.108,2.108,0,0,0,.216,1,7.032,7.032,0,0,1,.216.891,1.205,1.205,0,0,1,.108.809c-.108.405-.189.918-.4,1.08a2.257,2.257,0,0,1-1.08.405c-.459.054-.54-.108-.782-.405a1.08,1.08,0,0,1-.3-.837,1.487,1.487,0,0,0,.028-.783,2.73,2.73,0,0,1,.053-.782,3.731,3.731,0,0,1,.081-.783c.081-.216-.053-.351.027-.756.081-.324-.108-.513-.108-.7a.644.644,0,0,0-.27-.54,2.859,2.859,0,0,0-.486-.324c-.3-.135-.7-.161-.728-.593-.054-.675.243-.7.675-.7a1.843,1.843,0,0,0,.756-.189.843.843,0,0,0,.512-.432c.081-.162.189-.243.324-.513a3.176,3.176,0,0,0,.3-.783,1.751,1.751,0,0,1,.4-.81,4.7,4.7,0,0,0,.378-.809,3.724,3.724,0,0,0,.4-.81c.135-.351.27-.459.378-.783s.3-.4.4-.81a2.048,2.048,0,0,1,.377-.809c.27-.324.216-.432.4-.81a5.314,5.314,0,0,0,.405-.783c.108-.324.27-.459.378-.81.135-.324.3-.486.4-.809a2.266,2.266,0,0,1,.378-.81c.108-.135.189-.4.4-.81a3.406,3.406,0,0,1,.378-.783,1.771,1.771,0,0,0,.405-.81c.081-.27,0-.567.459-.728.161-.055.647.026.674.377.027.27-.162.486-.27.783a1.575,1.575,0,0,1-.351.648c-.189.405-.189.594-.323.81-.108.189-.189.54-.324.783m-6.263-5.885c.3-.216.54,0,.675,0a1.317,1.317,0,0,1,.756.216,1.865,1.865,0,0,0,.675.243c.324.027.648.4.971.621a1.8,1.8,0,0,1,.406,1.134,1.321,1.321,0,0,1-.27.809.964.964,0,0,1-.756.351,2.185,2.185,0,0,1-.7-.3,1.159,1.159,0,0,1-.432-.728.574.574,0,0,0-.432-.4c-.243-.054-.486-.351-.7-.432-.27-.108-.35-.27-.594-.486-.215-.216-.081-.3-.081-.594,0-.216.3-.3.486-.432m16.277.918c.4,0,.837-.027,1.431,0,.567.081,1.106.216,1.349,0a4.587,4.587,0,0,0,.486-.513,3.5,3.5,0,0,1,.4-.459,5.5,5.5,0,0,1,.4-.459c.162-.135.243-.378.4-.4.432-.109.675.377.81.593.081.135.243.135.459.27.27.162.539.243.728.378a2.178,2.178,0,0,1,.567.567c.135.216.216.594.108.7-.27.27-.54.621-.648.648a2.065,2.065,0,0,1-.918.027,5.13,5.13,0,0,1-1-.216,2.86,2.86,0,0,0-.891-.135,2.919,2.919,0,0,0-.972.027,2.141,2.141,0,0,1-.917.027c-.27,0-.459.216-.837.324a.72.72,0,0,0-.486.621c-.054.485-.135.917-.162,1.322a4.973,4.973,0,0,0-.054,1.053.539.539,0,0,0,.351.54c.108.054.378.377.7.27a9.775,9.775,0,0,1,1.268,0c.243-.054.648-.081.837-.135.216-.081.486-.162.54-.27a2.02,2.02,0,0,1,.648-.594c.216-.189.431.162.567.189.3.081.323.432.648.486.242.054.35.243.539.566.135.217.27.3.216.486-.054.243-.377.486-.566.621a1.341,1.341,0,0,0-.378.945,7.462,7.462,0,0,1,0,1.539,5.419,5.419,0,0,0,0,1.16c.053.486-.028.729,0,1.134.08.459-.028,1.134,0,1.565a10.066,10.066,0,0,0,0,1.566c0,.567.053,1.161.027,1.593-.055.567.134,1.16.026,1.565-.081.486.081.864.027,1.269a5.979,5.979,0,0,0,.028,1.242c.026.566-.028,1,0,1.376,0,.162-.351.54-.514.648a1.691,1.691,0,0,1-.836.189c-.4-.189-.594-.324-.621-.567a3.818,3.818,0,0,0-.027-.756.49.49,0,0,0-.3-.405c-.378-.107-.7-.3-.89-.243a4.975,4.975,0,0,1-1.566,0c-.594-.026-.972.028-1.458,0a8.885,8.885,0,0,1-1.484,0,13.879,13.879,0,0,0-1.485,0c-.54.028-.891,0-1.458,0a15.105,15.105,0,0,1-1.565,0,3.2,3.2,0,0,0-.891.243c-.3.135-.4.243-.4.405a4.271,4.271,0,0,1-.027.837.861.861,0,0,1-.432.729c-.243.216-.513.189-.864.243-.242.054-.675,0-.593-.459.054-.648-.054-.837,0-1.026.188-.486-.082-1,.026-1.4a4.583,4.583,0,0,0,.028-1.053,2.658,2.658,0,0,1,.027-1.026,4.554,4.554,0,0,0,.026-1.052,4.454,4.454,0,0,1,0-1.026c.028-.243-.026-.756.028-1.053a4.4,4.4,0,0,0,0-1.026,3.391,3.391,0,0,1,0-1.052V20.857a8.341,8.341,0,0,1,0-.837,7.981,7.981,0,0,0,0-.81,2.856,2.856,0,0,1,0-.837,2.166,2.166,0,0,0,0-.836c0-.324.108-.54-.028-.837a4.282,4.282,0,0,1,.028-.81,5.391,5.391,0,0,1-.081-.837,2.806,2.806,0,0,1-.028-.971c.162-.459.7-.324,1.134-.216.378.027.621.486,1.026.567a4.75,4.75,0,0,0,1.242,0,.726.726,0,0,0,.7-.756c.027-.27.189-.324.244-.675.026-.27.107-.432.107-.675V11.22c0-.27-.189-.324-.513-.62a1.561,1.561,0,0,0-1-.3h-.864c-.216.027-.567,0-.864,0-.486,0-.971.189-1.268.189a4.643,4.643,0,0,1-1.3-.108.587.587,0,0,1-.594-.621c0-.3.135-.486.594-.621a3.391,3.391,0,0,1,1.3-.054,8.547,8.547,0,0,0,1.268.162,6.024,6.024,0,0,1,1.4,0,6.094,6.094,0,0,0,1.4,0,6.1,6.1,0,0,0,1.4,0c.513-.027.837,0,1.4,0,.351,0,.917.027,1.431,0Zm3.86,11.823a7.822,7.822,0,0,0,0-1.134,3.137,3.137,0,0,1,0-1.134,5.281,5.281,0,0,0,0-1.133c-.054-.324.189-.81,0-1.188-.081-.162-.162-.567-.594-.675-.351-.081-.756-.351-1.107-.324-.242.027-.756-.027-1.025,0-.27.054-.513.405-.594.621-.108.3-.378.837-.27,1.161a3.376,3.376,0,0,1,0,.918,8.277,8.277,0,0,0,0,1.16c.054.405.513.243.729.243.593,0,.674.081.944-.54a9.005,9.005,0,0,0,.244-1c.08-.675.215-.972.512-.972.27.027.3.378.216,1a9.018,9.018,0,0,0,.027,1.268c.027.567.54.351.621.756a.7.7,0,0,1-.351.675,5.461,5.461,0,0,1-.783.27,2.664,2.664,0,0,1-.917.054,2.71,2.71,0,0,0-.648.027,2.76,2.76,0,0,1-.837-.027,3.141,3.141,0,0,1-.783-.135,1.49,1.49,0,0,1-.567-.378,1.174,1.174,0,0,1-.216-.783c0-.459-.026-.675,0-1.107.027-.3,0-.594.027-1.106a3.216,3.216,0,0,0,.027-1.134c-.108-.324-.08-.459-.35-.648-.244-.162-.648-.4-.918-.324a.791.791,0,0,0-.594.324c-.162.378-.189.513-.243.621-.162.27-.081.837-.216,1.161a8.239,8.239,0,0,0-.324.971c-.189.378-.135.594-.3.918a2.9,2.9,0,0,1-.4.837c-.189.3-.27.675-.487.864-.216.216-.378.324-.4.54-.053.324-.4.458-.539.539a1.234,1.234,0,0,1-1.08.243c-.3-.108-.108-.513.081-1.025a1.272,1.272,0,0,1,.3-.567c.135-.135.216-.378.324-.459a1.742,1.742,0,0,0,.4-.756,1.638,1.638,0,0,1,.351-.729c.161-.135.08-.594.216-.809.242-.324.053-.459.215-.81a1.209,1.209,0,0,0-.215-1.053.89.89,0,0,0-.648-.54,1.12,1.12,0,0,0-1.107-.027c-.324.189-.189.513-.243.864a4.822,4.822,0,0,0,.054,1.215,3.947,3.947,0,0,0-.054,1.133,5.157,5.157,0,0,1-.054,1.134v1.134a5.248,5.248,0,0,0-.027,1.106,5.3,5.3,0,0,1,0,1.134.819.819,0,0,0,.432.621,2.142,2.142,0,0,0,.864.324,7.578,7.578,0,0,0,1.565,0,8.736,8.736,0,0,0,1.458,0,13.623,13.623,0,0,1,1.485,0c.378,0,.971-.027,1.484,0,.567,0,.945.027,1.458,0a15.023,15.023,0,0,0,1.566,0,2.53,2.53,0,0,0,.836-.324c.189-.135.459-.27.459-.675,0-.216.027-.81,0-1.187Zm-4.319,7.477a4.351,4.351,0,0,0,1.458,0,10.107,10.107,0,0,0,1.566,0,2.585,2.585,0,0,0,.836-.513c.243-.189.54-.7.459-.945a2.605,2.605,0,0,1,0-.917c.027-.271-.243-.352-.459-.487a1.662,1.662,0,0,0-.836-.242c-.378-.054-1.162.027-1.566,0-.54,0-1,.027-1.458,0a4.541,4.541,0,0,0-1.484,0,5.469,5.469,0,0,1-1.485,0h-3.023c-.27,0-.486.216-.864.512a1.251,1.251,0,0,0-.432.945v.918a.506.506,0,0,0,.432.486c.189.054.486.162.864.243a10.052,10.052,0,0,0,1.565,0,6.581,6.581,0,0,1,1.458,0,4.56,4.56,0,0,0,1.485,0Zm-3-15.656a4.835,4.835,0,0,0,.108,1.053c.081.189.7.27.945.432.108.08.486-.108.728-.594a2.922,2.922,0,0,0,.217-1.3c.026-.351,0-.756,0-1.188a1.14,1.14,0,0,0-.163-.674c-.054-.135-.215-.243-.54-.324a1.273,1.273,0,0,0-1.187.351,1.717,1.717,0,0,0-.108,1.133c0,.27-.027.783,0,1.107" fill="#fff"/><path d="M56.294,52.2c.459,0,.7-.216,1.215-.135.405.054.836-.108,1.214.162a2.6,2.6,0,0,1,.594.513c.108.135-.189.3-.594.54a1.694,1.694,0,0,1-1.079.189,7.2,7.2,0,0,0-1.08,0c-.351.027-.756-.135-1.053-.054-.378.054-.81-.135-1.052-.081a2.2,2.2,0,0,1-1.107,0c-.378-.027-.729.054-1.107,0A1.875,1.875,0,0,0,51,53.684c-.377.324-.674.539-.647.7a6.855,6.855,0,0,1,0,1.295V56.9a4.549,4.549,0,0,0,0,1.214,9.522,9.522,0,0,1,0,1.242,6.139,6.139,0,0,1,0,1.215,6.14,6.14,0,0,0,0,1.241,4.776,4.776,0,0,0,0,1.242c.107.459-.054.864.026,1.215a3.767,3.767,0,0,1-.026,1.241,3.645,3.645,0,0,0,0,1.215c0,.378-.027.945,0,1.242.081.432-.054.837,0,1.215.026.35-.027.89,0,1.214a9.469,9.469,0,0,1,0,1.242A4.726,4.726,0,0,1,50.3,72.9c-.108.4-.378.35-.54.4a.447.447,0,0,1-.54-.4,10.408,10.408,0,0,1-.054-1.323,3.483,3.483,0,0,1,0-1.3,2.992,2.992,0,0,0,0-1.295c-.054-.324.027-.81,0-1.269-.027-.378,0-.918,0-1.3,0-.459-.027-.891,0-1.3v-1.3c0-.324-.027-.81,0-1.269V59.973c0-.4.027-.783,0-1.3a10.362,10.362,0,0,0,0-1.295,3.977,3.977,0,0,1,0-1.269,10.315,10.315,0,0,0,0-1.3,6.632,6.632,0,0,1,0-1.268c.081-.351-.3-1.08.027-1.35.216-.162.918,0,1.215,0,.486-.027.89,0,1.187,0,.486.027.891-.054,1.161,0a5.822,5.822,0,0,0,1.188,0,8.666,8.666,0,0,1,1.187,0Z" fill="#fff"/><path d="M80.652,70.284a.92.92,0,0,0,.513.917,2.558,2.558,0,0,0,1.269.351c.458,0,.809.027,1.376.027a3.025,3.025,0,0,0,1.3-.027.992.992,0,0,1,.755-.027c.189.081.648-.054.81-.054a2.5,2.5,0,0,0,.783-.054,1.838,1.838,0,0,1,.756-.108,2.119,2.119,0,0,0,1.242-.3,1.57,1.57,0,0,1,.971-.242,5.1,5.1,0,0,1,1.188.3,4.747,4.747,0,0,0,.513.4c.162.081.162.324.216.54s-.27.594-.4.7a2.859,2.859,0,0,1-.837.3,1.575,1.575,0,0,1-.918.108c-.458-.081-.594.108-.971.108-.4,0-.621.108-1,.081a3.021,3.021,0,0,0-.972.027,6.171,6.171,0,0,1-1,.027c-.35-.027-.944.054-1.4,0a4.552,4.552,0,0,0-.864-.027,6.432,6.432,0,0,1-.918-.054,2.305,2.305,0,0,1-.89-.108c-.189-.081-.675-.027-.837-.135-.351-.216-.513-.135-.729-.243s-.432-.135-.567-.3a6.049,6.049,0,0,1-.648-.783,3.625,3.625,0,0,1-.351-.891,4.061,4.061,0,0,1-.108-.971,5.715,5.715,0,0,0,0-.972c.027-.3-.053-.459,0-.81.027-.243-.026-.513.027-.81.054-.242,0-.755.028-1.106A7.6,7.6,0,0,0,79,65.02a4.006,4.006,0,0,1,0-1.134,3.51,3.51,0,0,0,.027-.971,2.905,2.905,0,0,1,0-.972,5.677,5.677,0,0,0,.028-.972,5.942,5.942,0,0,0,0-.972c-.081-.512-.028-.917-.27-1.214a.917.917,0,0,0-.486-.324c-.108-.027-.729.162-.756-.3-.027-.513.27-.54.837-.621.377-.054.62,0,.836-.135.189-.108.378.081.7.108a1.559,1.559,0,0,1,.81.351,3.692,3.692,0,0,0,.648.486c.243.135.162.27.3.621.108.3-.27.431-.486.729a1.8,1.8,0,0,0-.3.917c0,.432-.081.756-.054,1a4.4,4.4,0,0,1-.027.864,2.727,2.727,0,0,0,.054,1.187c.108.216.189.163.54.27a1.867,1.867,0,0,0,1.026-.081,8.067,8.067,0,0,1,.89-.189,4.827,4.827,0,0,0,.891-.189,7.328,7.328,0,0,1,.891-.269c.324-.081.647-.27.864-.324a2.556,2.556,0,0,0,.864-.378,4.742,4.742,0,0,1,.836-.4,1.73,1.73,0,0,1,.594-.3c.3-.081.486-.324.432-.486a1.326,1.326,0,0,0-.513-.513c-.189-.135-.486-.243-.378-.54.162-.405.567-.432,1.026-.351a8.473,8.473,0,0,1,1.133.486,1.914,1.914,0,0,1,.433.351,2.613,2.613,0,0,1,.485.459,1.068,1.068,0,0,1,.378.54c.081.27.27.4.162.54-.189.243-.135.486-.243.567-.162.108-.324.135-.594.3a6.4,6.4,0,0,1-1.025.323,5.4,5.4,0,0,1-1.053.324c-.351.081-.945.3-1.134.324a6.664,6.664,0,0,1-.917.243c-.378.027-.54.216-.729.216-.163,0-.486.189-.729.189a1.5,1.5,0,0,0-.729.189,1.073,1.073,0,0,1-.729.189c-.4.027-.567.216-.891.216-.215,0-.62.216-.89.216-.162,0-.486.27-.7.351a.658.658,0,0,0-.4.486,6.117,6.117,0,0,0,0,1c.027.351-.027.54-.027.864,0,.27-.027.567,0,.864ZM94.364,60.135c-.054.323-.351.323-.648.323-.4.027-.674-.323-.836-.54-.189-.324-.432-.7-.54-.89-.135-.243-.216-.486-.54-.594s-.594-.621-1.458-.972a.473.473,0,0,1-.323-.648.484.484,0,0,1,.512-.3c.324.027.513-.08.756.081a3.6,3.6,0,0,0,.864.324,2.352,2.352,0,0,1,.783.378,2.823,2.823,0,0,0,.648.378.6.6,0,0,1,.512.486c.054.27.3.27.351.594a5.847,5.847,0,0,0,.135.675c.027.161-.189.459-.216.7m1.971-1.917c-.432.027-.567-.135-.783-.432-.243-.3-.324-.54-.513-.756-.216-.243-.378-.54-.513-.648-.216-.189-.3-.432-.593-.512a5.952,5.952,0,0,1-1-.459.507.507,0,0,1-.459-.594c.081-.27.351-.324,1.241-.216.244.027.594.189.864.216.351.081.486.324.837.351a1.8,1.8,0,0,1,.675.351c.135.135.432.135.54.431a4.55,4.55,0,0,0,.378.54,2.971,2.971,0,0,1,.135.675c.107.27-.027.459-.216.7-.217.27-.27.378-.594.351" fill="#fff"/><path d="M124.957,58.407a2.652,2.652,0,0,1-.054-.756c.054-.621-.027-1-.3-1.188-.324-.3-.594-.27-1.107-.161-.621.135-.7-.135-.7-.513,0-.432.3-.432.754-.648a9.387,9.387,0,0,1,1.269-.243,1.691,1.691,0,0,1,.594.189,4.077,4.077,0,0,0,.81.27c.406.108.621.135.729.378.081.215.351.189.323.458-.027.216-.242.3-.3.675-.026.135-.215.594-.27.945a6.2,6.2,0,0,0,.028,1A3.828,3.828,0,0,0,126.874,60a.757.757,0,0,0,.836.458c.325,0,.783-.027,1.026-.054.351-.027.675-.081,1-.081a6.607,6.607,0,0,0,1-.108,5.487,5.487,0,0,1,.837-.108,6.237,6.237,0,0,0,.621-.107c.243,0,.54-.594.972-.378.189.108.351,0,.622.108a1.908,1.908,0,0,1,.728.323c.134.135.539.216.62.459s.243.3.3.54a.616.616,0,0,1-.619.756c-.3-.027-.756-.027-1.135-.054-.242-.054-.621,0-.891-.054-.162-.027-.648,0-.89-.027a5.75,5.75,0,0,1-.972,0,3.141,3.141,0,0,0-1,.027c-.4.027-.675,0-1.107.027a5.887,5.887,0,0,1-1.107.081c-.3-.027-.485.324-.621.756a4.4,4.4,0,0,0-.108,1.4c0,.432.163.729.055,1.134a2.713,2.713,0,0,0-.028,1.134,5.357,5.357,0,0,0,0,1.133,8.206,8.206,0,0,1,.028,1.134l.027,1.107.055,1.134a6.44,6.44,0,0,1,.026,1c-.108.405.081.729.026,1a2.762,2.762,0,0,0-.052.918,1.141,1.141,0,0,1-.379.864,3.432,3.432,0,0,1-.675.593,1.645,1.645,0,0,1-.81.324c-.351-.108-.594-.162-.594-.351,0-.243-.081-.269-.243-.512a.969.969,0,0,0-.621-.486c-.323-.054-.648-.27-.809-.27a2.39,2.39,0,0,1-.864-.189c-.3-.135-.54-.27-.567-.459-.027-.378.108-.486.459-.594.243-.054.432.108.811.054.35-.054.566.189.97.189.162,0,.567.054.837.054.486,0,.541-.27.621-.486a5.716,5.716,0,0,0,.108-1.457c.027-.486-.027-1.026-.027-1.512a4.16,4.16,0,0,0,0-1.161,3.668,3.668,0,0,1-.027-1.214,7.056,7.056,0,0,0,0-.756c-.027-.162.027-.324-.027-.729a3.663,3.663,0,0,0,0-.945c0-.108-.135-.216-.4-.081a2.975,2.975,0,0,0-.756.7,4.266,4.266,0,0,1-.567.675c-.216.243-.268.4-.486.54-.241.162-.215.378-.431.459a.574.574,0,0,0-.378.4c-.054.189-.351.324-.486.513a1.517,1.517,0,0,1-.54.513c-.135.081-.35.432-.513.513a3.6,3.6,0,0,0-.54.459,1.877,1.877,0,0,1-.539.486,1.75,1.75,0,0,0-.54.459,2.21,2.21,0,0,1-.567.486,6.814,6.814,0,0,1-.594.458c-.189.108-.351.135-.486.351a.722.722,0,0,1-.513.351c-.243.081-.27.162-.513.351a1,1,0,0,1-.512.324,1.19,1.19,0,0,0-.541.324,1.281,1.281,0,0,1-.593.27c-.539.081-.945.54-1.269.351a.791.791,0,0,1-.351-.7c.081-.351.432-.324.648-.621.135-.216.433-.3.7-.54a7.077,7.077,0,0,1,.729-.459,7.807,7.807,0,0,0,.7-.458,2.55,2.55,0,0,0,.676-.486,5.258,5.258,0,0,1,.674-.486c.216-.135.378-.432.675-.54.27-.108.324-.351.648-.567a1.346,1.346,0,0,0,.675-.621,2.139,2.139,0,0,1,.647-.675,2.945,2.945,0,0,0,.648-.647c.27-.324.54-.432.621-.7a1.493,1.493,0,0,1,.594-.7c.108-.081.459-.567.594-.729a4.087,4.087,0,0,1,.566-.729c.163-.108.189-.62.54-.755.108-.027.082-.189.135-.459.081-.4-.431-.567-.675-.513-.27.054-.4.027-.62.081a5.981,5.981,0,0,1-1.026.108,5.956,5.956,0,0,0-1,.108,1.676,1.676,0,0,1-.755.108,3.8,3.8,0,0,1-.756.081c-.3-.027-.459.162-.755.108-.352-.081-.433.135-.73.135a6.751,6.751,0,0,0-.972.324c-.378.054-.431-.108-.755-.243a1.789,1.789,0,0,1-.7-.567c-.27-.324-.567-.324-.783-.7-.162-.3-.377-.567-.216-.81.27-.351.324-.162.594-.324.108-.054.351.216.567.378.109.081.459.081.782.189a3.458,3.458,0,0,0,.837.189,1.558,1.558,0,0,0,.783-.027c.162-.081.459,0,.783-.027a4.563,4.563,0,0,1,.81-.081c.324.027.4-.135.783-.054.215.054.4-.081.782-.081l.81-.054c.3,0,.567-.081.892-.081.269,0,.539-.081.89-.081a2.452,2.452,0,0,0,1.349-.378c.324-.243.54-.459.486-.89Z" fill="#fff"/><path d="M170.4,64.049c.324-.027.54-.162.783-.162.27,0,.378.054.729.054a3.438,3.438,0,0,1,.89.162,1.262,1.262,0,0,1,.756.378c.135.135.4.486.324.675-.108.3-.108.432-.243.513a1.726,1.726,0,0,1-.594.27,9.12,9.12,0,0,1-1.295.108,4.313,4.313,0,0,0-.864,0,2.817,2.817,0,0,1-1.215,0h-.756c-.378-.028-.836,0-1.214,0a6.58,6.58,0,0,1-1.242.026,6.123,6.123,0,0,0-1.215,0c-.512,0-.89.028-1.241.028-.54,0-.7.053-1.215.053a3.732,3.732,0,0,0-1.215.028,9.261,9.261,0,0,1-1.241.054c-.459.107-.972-.028-1.215.053a3.059,3.059,0,0,1-.7.027,5.123,5.123,0,0,0-.972.027,6.6,6.6,0,0,1-1.025.108c-.243-.027-.81.243-1.08.243a1.918,1.918,0,0,1-1-.27,2.521,2.521,0,0,1-.566-.323c-.189-.189-.459-.271-.514-.406-.053-.188-.35-.3-.485-.485a3.034,3.034,0,0,0-.486-.54c-.324-.4-.351-.756-.216-.972.216-.3.486-.054.917.162a8.5,8.5,0,0,0,.973.594,2.639,2.639,0,0,0,.782.135c.351,0,.729.027.945.027a9.488,9.488,0,0,1,1.161-.027c.431.135.7-.108,1.214-.027a9.027,9.027,0,0,0,1.215-.027c.324,0,.7-.027,1.161-.027.4,0,.674-.054,1.16-.027.513.027.891-.054,1.188-.027a8.729,8.729,0,0,0,1.188-.027l1.4-.027,1.4-.054c.324,0,.89-.081,1.4-.081a5.7,5.7,0,0,0,1.4-.108Z" fill="#fff"/><path d="M197.291,62.348c-.35.108-.809.3-1.079.378a1.582,1.582,0,0,1-1,.027,2.3,2.3,0,0,1-.81-.486,2.383,2.383,0,0,1-.594-.567c-.162-.3-.323-.269-.378-.593-.081-.594.055-.891.351-.891.271,0,.351.378.621.54a5.153,5.153,0,0,0,.7.216,2.3,2.3,0,0,0,.891-.081,3.752,3.752,0,0,1,1.187-.189,6.975,6.975,0,0,0,1-.162,3.658,3.658,0,0,1,1.107-.189c.351-.027.7-.27,1.134-.216a7.437,7.437,0,0,0,1.133-.216,5.348,5.348,0,0,1,1.107-.216,6.882,6.882,0,0,0,1.134-.216A2.278,2.278,0,0,0,204.849,59a.886.886,0,0,1,1-.216,4.09,4.09,0,0,1,.972.594,8.6,8.6,0,0,0,.783.594c.3.243.216.459.3.54.215.216-.243.513-.729.594a2.9,2.9,0,0,0-.648.3,3.939,3.939,0,0,0-.594.486c-.243.189-.27.378-.486.54-.216.189-.216.4-.432.513a.69.69,0,0,0-.4.459c-.081.3-.189.27-.406.432a6.643,6.643,0,0,0-.755.783,5.521,5.521,0,0,0-.7.728c-.135.243.027.837,0,1.053a5.143,5.143,0,0,0,0,1.3c0,.378-.027.917,0,1.214.081.432-.054.864,0,1.242a4.571,4.571,0,0,1,0,1.215,4.544,4.544,0,0,0,0,1.215,2.493,2.493,0,0,0,.027,1.187,8.29,8.29,0,0,1,0,1.161,6.892,6.892,0,0,1,0,.891,1.558,1.558,0,0,1-.135.89.821.821,0,0,1-.7.459,1.756,1.756,0,0,1-.7-.243c-.189-.135-.216-.351-.35-.594a2.264,2.264,0,0,1-.163-1.322,5.422,5.422,0,0,0,.108-1.026c-.026-.81,0-.891.055-1a1.509,1.509,0,0,0,.053-.971,1.443,1.443,0,0,1,.028-.675c.08-.513-.028-1.026.027-1.458.026-.27-.027-.783,0-1a.483.483,0,0,0-.378-.621c-.27-.081-.459-.243-.729-.027a2.759,2.759,0,0,1-.918.648c-.27.08-.3.242-.567.4a1.764,1.764,0,0,0-.54.4c-.135.216-.431.243-.567.4-.189.216-.161.324-.593.432a1.4,1.4,0,0,0-.675.432c-.27.216-.432.243-.675.432a3.806,3.806,0,0,1-.7.432c-.243.108-.378.27-.7.432-.3.135-.459.3-.7.377a2.845,2.845,0,0,0-.755.351c-.351.216-.486.108-.783.3s-.675.324-.837.216a.806.806,0,0,1-.377-.7c.053-.3.458-.432.647-.593.243-.216.486-.324.648-.486a2.707,2.707,0,0,1,.756-.432c.162-.054.4-.27.7-.4a5.584,5.584,0,0,0,.675-.4c.189-.108.486-.3.675-.432a2.642,2.642,0,0,1,.7-.432,1.9,1.9,0,0,0,.675-.432c.3-.243.513-.3.647-.485a.926.926,0,0,1,.675-.486,3.4,3.4,0,0,0,.675-.513c.216-.135.378-.432.621-.54a1.51,1.51,0,0,0,.621-.567c.162-.3.432-.243.594-.567.135-.189.351-.216.566-.54.081-.135.406-.35.567-.539.162-.216.028-.513-.108-.756s-.728-.189-.62-.567c.081-.3.836-.3,1.349-.243a1.709,1.709,0,0,0,.837-.27c.135-.054.243-.378.486-.513a1.849,1.849,0,0,0,.513-.513c.162-.27.4-.4.459-.54.135-.4.216-.459.081-.647-.216-.27-.567-.027-.81-.027a3.705,3.705,0,0,0-.918.189,2.918,2.918,0,0,1-.837.215c-.215,0-.566.163-.836.189a1.87,1.87,0,0,0-.81.216,1.32,1.32,0,0,1-.81.216,7.624,7.624,0,0,0-.81.243Zm2.862-9.528a1.343,1.343,0,0,1,.837.108,6.9,6.9,0,0,1,.917.351c.378.134.54.351.783.4a1.874,1.874,0,0,1,.648.406,2.284,2.284,0,0,1,.513.512c.108.135.161.432.324.594.189.162.107.513.135.675.108.378-.189.729-.324.918a.8.8,0,0,1-.81.432c-.432,0-.783-.081-.837-.459-.027-.324-.324-.486-.432-.891a2.809,2.809,0,0,0-.377-.81,7.908,7.908,0,0,0-.514-.7,3.4,3.4,0,0,0-.89-.621c-.351-.161-.648-.431-.486-.647.189-.27.3-.162.513-.27m10.608,17.707a.992.992,0,0,1-.783.378,1.059,1.059,0,0,1-.863-.4,4.033,4.033,0,0,1-.541-.837,4.137,4.137,0,0,0-.377-.567c-.163-.243-.3-.486-.432-.539-.189-.054-.189-.324-.459-.513-.216-.162-.27-.432-.513-.459-.3-.081-.378-.216-.675-.4a1.709,1.709,0,0,0-.836-.378,1.116,1.116,0,0,1-.811-.4.548.548,0,0,1-.026-.459c.108-.27.351-.216.809-.189a11.327,11.327,0,0,1,1.215.3,5.69,5.69,0,0,1,1.08.3,6.4,6.4,0,0,1,1.052.4,7.268,7.268,0,0,1,.945.567,7.86,7.86,0,0,1,.756.648c.189.216.351.567.54.81a1.518,1.518,0,0,1,.189.917,1.349,1.349,0,0,1-.27.837" fill="#fff"/><path d="M231.178,77.788a5.323,5.323,0,0,0-1.188.135c-.378.162-.81-.081-1.242-.189-.458-.054-.647-.27-.593-.513a.658.658,0,0,1,.593-.54,6.816,6.816,0,0,0,1.107-.162,3.441,3.441,0,0,1,1.053,0,3.653,3.653,0,0,1,1.053.054c.323.135.62-.081,1.052.081a3.035,3.035,0,0,0,1.107,0c.378-.027.81.054,1.107,0a7.349,7.349,0,0,0,1.242-.377.89.89,0,0,0,.647-.7,6.884,6.884,0,0,0,0-1.3c0-.27.027-.81,0-1.215a3.656,3.656,0,0,1,0-1.214,6.356,6.356,0,0,0,0-1.242,4.556,4.556,0,0,0,0-1.215c-.027-.27.027-.729,0-1.241a4.565,4.565,0,0,1,0-1.215,9.509,9.509,0,0,0,0-1.242,2.749,2.749,0,0,0,0-1.241,6.049,6.049,0,0,1,0-1.215c0-.432-.027-.729,0-1.242.081-.377-.054-.782,0-1.214.027-.459-.027-.729,0-1.215a12.222,12.222,0,0,0-.108-1.242,2.334,2.334,0,0,1,.162-1.268c.162-.3.378-.648.54-.621.243.054.378.3.567.621a2.064,2.064,0,0,1,.135,1.322c0,.351-.216,1-.108,1.3a4.164,4.164,0,0,1,0,1.3,9.894,9.894,0,0,0,0,1.268v2.591c0,.567-.027.864,0,1.3a6.884,6.884,0,0,0,0,1.3c.027.459,0,.837,0,1.269v2.591a10.376,10.376,0,0,1,0,1.3,2.846,2.846,0,0,0,0,1.268,10.315,10.315,0,0,1,0,1.3,6.917,6.917,0,0,0,0,1.3c.081.513.3.972-.027,1.323-.351.351-.729.027-1.215,0-.323-.027-.675.027-1.187.027-.27.027-.7-.027-1.161,0a3.509,3.509,0,0,1-1.188,0,8.685,8.685,0,0,0-1.187,0Z" fill="#fff"/></g></g></g></svg>